<svg width="200" height="200" xmlns="http://www.w3.org/2000/svg" xmlns:svg="http://www.w3.org/2000/svg">
 <!-- Created with SVG-edit - http://svg-edit.googlecode.com/ -->
 <g>
  <title>Layer 1</title>
  <g id="svg_23" stroke="null">
   <line id="svg_7" y2="143.64183" x2="67.78472" y1="143.64183" x1="53.42361" stroke-linecap="round" stroke-linejoin="null" stroke-dasharray="null" stroke-width="7" fill="none" stroke="#007f7f"/>
   <line id="svg_8" y2="142.82418" x2="106.95139" y1="142.82418" x1="78.22917" stroke-linecap="round" stroke-linejoin="null" stroke-dasharray="null" stroke-width="7" fill="none" stroke="#007f7f"/>
   <line y2="182.88889" x2="112.50001" y1="182.88889" x1="19.15277" stroke-linecap="round" stroke-linejoin="null" stroke-dasharray="null" stroke-width="7" fill="none" id="svg_6" stroke="#007f7f"/>
   <line y2="142.82418" x2="41.02084" y1="142.82418" x1="26.65972" stroke-linecap="round" stroke-linejoin="null" stroke-dasharray="null" stroke-width="7" fill="none" id="svg_10" stroke="#007f7f"/>
   <line y2="156.31536" x2="67.45834" y1="156.31536" x1="53.09722" stroke-linecap="round" stroke-linejoin="null" stroke-dasharray="null" stroke-width="7" fill="none" id="svg_11" stroke="#007f7f"/>
   <line y2="155.49771" x2="106.625" y1="155.49771" x1="77.90278" stroke-linecap="round" stroke-linejoin="null" stroke-dasharray="null" stroke-width="7" fill="none" id="svg_12" stroke="#007f7f"/>
   <line y2="155.49771" x2="40.69445" y1="155.49771" x1="26.33333" stroke-linecap="round" stroke-linejoin="null" stroke-dasharray="null" stroke-width="7" fill="none" id="svg_13" stroke="#007f7f"/>
   <line y2="169.39771" x2="67.45834" y1="169.39771" x1="53.09722" stroke-linecap="round" stroke-linejoin="null" stroke-dasharray="null" stroke-width="7" fill="none" id="svg_14" stroke="#007f7f"/>
   <line y2="168.58007" x2="106.625" y1="168.58007" x1="77.90278" stroke-linecap="round" stroke-linejoin="null" stroke-dasharray="null" stroke-width="7" fill="none" id="svg_15" stroke="#007f7f"/>
   <line y2="168.58007" x2="40.69445" y1="168.58007" x1="26.33333" stroke-linecap="round" stroke-linejoin="null" stroke-dasharray="null" stroke-width="7" fill="none" id="svg_16" stroke="#007f7f"/>
   <line y2="129.74183" x2="111.84724" y1="129.74183" x1="18.5" stroke-linecap="round" stroke-linejoin="null" stroke-dasharray="null" stroke-width="7" fill="none" id="svg_21" stroke="#007f7f"/>
   <line y2="113.38889" x2="111.84724" y1="113.38889" x1="18.5" stroke-linecap="round" stroke-linejoin="null" stroke-dasharray="null" stroke-width="7" fill="none" id="svg_22" stroke="#007f7f"/>
  </g>
  <path transform="rotate(-127.71174621582031 67.58399963378906,67.72947692871094) " fill="#000000" stroke-width="5" stroke-dasharray="null" stroke-linejoin="null" stroke-linecap="null" d="m108.18123,68.2874c2.6615,20.44802 -25.65155,47.94179 -25.79607,47.26837c-0.14454,-0.67342 23.72134,-21.82295 20.96906,-40.8395c-2.75227,-19.01656 -22.07307,-27.21237 -35.39466,-28.74677l-4.15722,14.96277l-36.99208,-29.74283l49.00226,-11.29838l-3.9997,13.54405c14.23857,4.16298 33.70691,14.40427 36.3684,34.8523l0,0l0.00001,0l0,-0.00001z" id="svg_17" stroke="#000000"/>
  <line id="svg_2" y2="39.50294" x2="135.28472" y1="39.50294" x1="120.92361" stroke-linecap="round" stroke-linejoin="null" stroke-dasharray="null" stroke-width="7" fill="none" stroke="#000000"/>
  <line id="svg_3" y2="38.68529" x2="174.45139" y1="38.68529" x1="145.72917" stroke-linecap="round" stroke-linejoin="null" stroke-dasharray="null" stroke-width="7" fill="none" stroke="#000000"/>
  <line id="svg_9" y2="52.17647" x2="134.95834" y1="52.17647" x1="120.59722" stroke-linecap="round" stroke-linejoin="null" stroke-dasharray="null" stroke-width="7" fill="none" stroke="#000000"/>
  <line id="svg_18" y2="51.35882" x2="174.125" y1="51.35882" x1="145.40278" stroke-linecap="round" stroke-linejoin="null" stroke-dasharray="null" stroke-width="7" fill="none" stroke="#000000"/>
  <line id="svg_20" y2="65.25882" x2="134.95834" y1="65.25882" x1="120.59722" stroke-linecap="round" stroke-linejoin="null" stroke-dasharray="null" stroke-width="7" fill="none" stroke="#000000"/>
  <line id="svg_24" y2="64.44118" x2="174.125" y1="64.44118" x1="145.40278" stroke-linecap="round" stroke-linejoin="null" stroke-dasharray="null" stroke-width="7" fill="none" stroke="#000000"/>
  <line id="svg_28" y2="79.40882" x2="134.59723" y1="79.40882" x1="120.23611" stroke-linecap="round" stroke-linejoin="null" stroke-dasharray="null" stroke-width="7" fill="none" stroke="#000000"/>
  <line id="svg_29" y2="78.59118" x2="173.76389" y1="78.59118" x1="145.04167" stroke-linecap="round" stroke-linejoin="null" stroke-dasharray="null" stroke-width="7" fill="none" stroke="#000000"/>
  <rect ry="14" rx="14" id="svg_30" height="79" width="81" y="18" x="106" stroke-linecap="round" stroke-linejoin="null" stroke-dasharray="null" stroke-width="7" stroke="#000000" fill="none"/>
 </g>
</svg>
