<svg width="200" height="200" xmlns="http://www.w3.org/2000/svg" xmlns:svg="http://www.w3.org/2000/svg">
 <!-- Created with SVG-edit - http://svg-edit.googlecode.com/ -->
 <g>
  <title>Layer 1</title>
  <g stroke="null" id="svg_5">
   <path stroke="#666666" fill-opacity="0" id="svg_1" d="m159.8686,83.35741l0,0m0,0l0,38.55329c0,5.32309 -27.33552,9.63829 -61.05557,9.63829c-33.72006,0 -61.05557,-4.31519 -61.05557,-9.63829l0,-38.55329l0,0" stroke-width="15" fill="#000000"/>
   <path stroke="#666666" id="svg_3" fill-opacity="0" d="m159.8686,43.32085c0,5.32309 -27.33552,9.63831 -61.05557,9.63831m61.05557,-9.63831l0,0c0,5.32309 -27.33552,9.63831 -61.05557,9.63831c-33.72006,0 -61.05557,-4.31521 -61.05557,-9.63831m0,0l0,0c0,-5.3231 27.33551,-9.63832 61.05557,-9.63832c33.72005,0 61.05557,4.31522 61.05557,9.63832l0,38.55328c0,5.3231 -27.33552,9.63831 -61.05557,9.63831c-33.72006,0 -61.05557,-4.31521 -61.05557,-9.63831l0,-38.55328z" stroke-width="15" fill="#000000"/>
   <path stroke="#666666" id="svg_4" fill-opacity="0" d="m159.8686,122.64573l0,0m0,0l0,38.55328c0,5.3231 -27.33552,9.63831 -61.05557,9.63831c-33.72006,0 -61.05557,-4.31521 -61.05557,-9.63831l0,-38.55328l0,0" stroke-width="15" fill="#000000"/>
  </g>
 </g>
</svg>
