<svg width="200" height="200" xmlns="http://www.w3.org/2000/svg" xmlns:svg="http://www.w3.org/2000/svg" stroke="null" style="vector-effect: non-scaling-stroke;">
 <!-- Created with SVG-edit - http://svg-edit.googlecode.com/ -->
 <g stroke="null">
  <title stroke="null">Layer 1</title>
  <g stroke="null" id="svg_13">
   <path stroke="#007f7f" id="svg_11" d="m47.99999,84.51074l0,97.03783c43.02222,0.26447 73.24445,0.98265 111.46667,-0.11402l-0.53333,-85.74487l-73.6,0.56773l-1.06667,-12.25741l-36.26667,0.51073z" fill-opacity="0" stroke-linecap="round" stroke-linejoin="round" stroke-dasharray="null" stroke-width="7" fill="#000000"/>
   <path stroke="#007f7f" id="svg_12" d="m48.53333,179.28l27.2,-63.51999l108.26667,-0.90743l-24,63.06628" stroke-linecap="round" stroke-linejoin="round" stroke-dasharray="null" stroke-width="7" fill="#ffffff"/>
  </g>
  <path stroke="#000000" transform="rotate(-17.831893920898438 64.22963714599607,86.07225036621094) " fill="#000000" stroke-width="5" stroke-dasharray="null" stroke-linejoin="null" stroke-linecap="null" d="m8.75574,86.87828c-3.63679,29.54144 35.05145,69.26195 35.24893,68.28905c0.19751,-0.97289 -32.41393,-31.52782 -28.65309,-59.00121c3.76083,-27.4734 30.16166,-39.31396 48.36489,-41.53073l5.68061,21.61686l50.54767,-42.96974l-66.95893,-16.32288l5.46538,19.56721c-19.45624,6.01429 -46.05867,20.80999 -49.69545,50.35144l0,0l-0.00001,0z" id="svg_17"/>
 </g>
</svg>
