<svg width="200" height="200" xmlns="http://www.w3.org/2000/svg" xmlns:svg="http://www.w3.org/2000/svg">
 <!-- Created with SVG-edit - http://svg-edit.googlecode.com/ -->
 <g>
  <title>Layer 1</title>
  <g stroke="null" id="svg_5">
   <path stroke="#000000" fill="#000000" stroke-width="5" d="m119.868604,111.665057l0,0m0,0l0,31.807056c0,4.391624 -23.30608,7.951735 -52.055579,7.951735c-28.749499,0 -52.055568,-3.560101 -52.055568,-7.951735l0,-31.807056l0,0" id="svg_1" fill-opacity="0"/>
   <path stroke="#000000" fill="#000000" stroke-width="5" d="m119.868604,78.634288c0,4.391634 -23.30608,7.951756 -52.055579,7.951756m52.055579,-7.951756l0,0c0,4.391634 -23.30608,7.951756 -52.055579,7.951756c-28.749499,0 -52.055568,-3.560112 -52.055568,-7.951756m0,0l0,0c0,-4.391634 23.30607,-7.951756 52.055568,-7.951756c28.749499,0 52.055579,3.560122 52.055579,7.951756l0,31.807046c0,4.391634 -23.30608,7.951746 -52.055579,7.951746c-28.749499,0 -52.055568,-3.560112 -52.055568,-7.951746l0,-31.807046z" fill-opacity="0" id="svg_3"/>
   <path stroke="#000000" fill="#000000" stroke-width="5" d="m119.868604,144.078518l0,0m0,0l0,31.807046c0,4.391634 -23.30608,7.951746 -52.055579,7.951746c-28.749499,0 -52.055568,-3.560112 -52.055568,-7.951746l0,-31.807046l0,0" fill-opacity="0" id="svg_4"/>
  </g>
  <path stroke="#000000" transform="rotate(22.268190383911133 143.11485290527344,72.65655517578121) " id="svg_17" d="m180.491008,73.258896c2.450329,22.076347 -23.616293,51.759509 -23.749361,51.032469c-0.133068,-0.72704 21.839253,-23.560768 19.305342,-44.09165c-2.533898,-20.530894 -20.321749,-29.379366 -32.58638,-31.03595l-3.827377,16.154295l-34.057052,-32.111321l45.114334,-12.198102l-3.682374,14.622593c13.108859,4.494493 31.032552,15.551318 33.482867,37.627666z" stroke-linecap="null" stroke-linejoin="null" stroke-dasharray="null" stroke-width="5" fill="#000000"/>
 </g>
</svg>
