<svg width="200" height="200" xmlns="http://www.w3.org/2000/svg" xmlns:svg="http://www.w3.org/2000/svg">
 <!-- Created with SVG-edit - http://svg-edit.googlecode.com/ -->
 <g>
  <title>Layer 1</title>
  <rect ry="6" rx="6" stroke="#007f7f" id="svg_1" height="45" width="167" y="134.66667" x="16.66667" stroke-linecap="null" stroke-linejoin="null" stroke-dasharray="null" stroke-width="7" fill="none"/>
  <path transform="rotate(43.79676055908203 109.1974639892578,87.18263244628908) " stroke="#000000" id="svg_27" d="m104.41397,1.51455c-4.204,0.20987 -10.64854,2.02252 -10.82797,7.09999l-0.9483,17.6464c11.91756,-0.22376 22.32441,0.388 34.25502,-0.29527c0.4927,-5.48832 0.051,-10.79909 0.54369,-16.28742c-1.10933,-5.8383 -4.44786,-7.02422 -9.53198,-8.47073l-13.49047,0.30702zm-13.45545,133.58433c10.62505,-0.5266 24.04025,-1.12635 34.66531,-1.65296c0.66674,-34.05582 0.18089,-66.79572 0.84763,-100.85154c-10.62937,0.52807 -23.45955,0.01181 -34.08891,0.53987c-1.13555,33.26064 -0.28848,68.70398 -1.42403,101.96463zm8.49157,21.80292l7.39445,16.25594l8.53743,-17.04714l7.93895,-15.83059l-30.75713,1.51507l6.8863,15.10672l0.00001,0l-0.00001,0z" stroke-linecap="round" stroke-linejoin="null" stroke-dasharray="null" stroke-width="7" fill="#ffffff"/>
 </g>
</svg>
